
    <svg xmlns="http://www.w3.org/2000/svg" xmlns:xlink="http://www.w3.org/1999/xlink" viewBox="0 0 250 250" width="250" height="250" >
      <clipPath id="clipz47z279">
        






<circle cx="67.85714285714286" cy="10.714285714285715" r="2.380952380952381" fill="#2D2E43" />
<circle cx="82.14285714285714" cy="10.714285714285715" r="2.380952380952381" fill="#2D2E43" />
<circle cx="89.28571428571428" cy="10.714285714285715" r="2.380952380952381" fill="#2D2E43" />
<circle cx="103.57142857142857" cy="10.714285714285715" r="2.380952380952381" fill="#2D2E43" />
<circle cx="117.85714285714286" cy="10.714285714285715" r="2.380952380952381" fill="#2D2E43" />
<circle cx="125" cy="10.714285714285715" r="2.380952380952381" fill="#2D2E43" />
<circle cx="139.2857142857143" cy="10.714285714285715" r="2.380952380952381" fill="#2D2E43" />
<circle cx="160.71428571428572" cy="10.714285714285715" r="2.380952380952381" fill="#2D2E43" />
<circle cx="175.00000000000003" cy="10.714285714285715" r="2.380952380952381" fill="#2D2E43" />









<circle cx="75" cy="17.857142857142858" r="2.380952380952381" fill="#2D2E43" />
<circle cx="96.42857142857143" cy="17.857142857142858" r="2.380952380952381" fill="#2D2E43" />
<circle cx="103.57142857142857" cy="17.857142857142858" r="2.380952380952381" fill="#2D2E43" />
<circle cx="110.71428571428571" cy="17.857142857142858" r="2.380952380952381" fill="#2D2E43" />
<circle cx="139.2857142857143" cy="17.857142857142858" r="2.380952380952381" fill="#2D2E43" />
<circle cx="146.42857142857144" cy="17.857142857142858" r="2.380952380952381" fill="#2D2E43" />







<circle cx="75" cy="25.000000000000004" r="2.380952380952381" fill="#2D2E43" />
<circle cx="89.28571428571428" cy="25.000000000000004" r="2.380952380952381" fill="#2D2E43" />
<circle cx="96.42857142857143" cy="25.000000000000004" r="2.380952380952381" fill="#2D2E43" />
<circle cx="110.71428571428571" cy="25.000000000000004" r="2.380952380952381" fill="#2D2E43" />
<circle cx="117.85714285714286" cy="25.000000000000004" r="2.380952380952381" fill="#2D2E43" />
<circle cx="125" cy="25.000000000000004" r="2.380952380952381" fill="#2D2E43" />
<circle cx="132.14285714285717" cy="25.000000000000004" r="2.380952380952381" fill="#2D2E43" />
<circle cx="139.2857142857143" cy="25.000000000000004" r="2.380952380952381" fill="#2D2E43" />
<circle cx="160.71428571428572" cy="25.000000000000004" r="2.380952380952381" fill="#2D2E43" />
<circle cx="182.14285714285717" cy="25.000000000000004" r="2.380952380952381" fill="#2D2E43" />










<circle cx="67.85714285714286" cy="32.142857142857146" r="2.380952380952381" fill="#2D2E43" />
<circle cx="82.14285714285714" cy="32.142857142857146" r="2.380952380952381" fill="#2D2E43" />
<circle cx="89.28571428571428" cy="32.142857142857146" r="2.380952380952381" fill="#2D2E43" />
<circle cx="96.42857142857143" cy="32.142857142857146" r="2.380952380952381" fill="#2D2E43" />
<circle cx="117.85714285714286" cy="32.142857142857146" r="2.380952380952381" fill="#2D2E43" />
<circle cx="125" cy="32.142857142857146" r="2.380952380952381" fill="#2D2E43" />
<circle cx="132.14285714285717" cy="32.142857142857146" r="2.380952380952381" fill="#2D2E43" />
<circle cx="167.85714285714286" cy="32.142857142857146" r="2.380952380952381" fill="#2D2E43" />
<circle cx="182.14285714285717" cy="32.142857142857146" r="2.380952380952381" fill="#2D2E43" />










<circle cx="67.85714285714286" cy="39.285714285714285" r="2.380952380952381" fill="#2D2E43" />
<circle cx="89.28571428571428" cy="39.285714285714285" r="2.380952380952381" fill="#2D2E43" />
<circle cx="96.42857142857143" cy="39.285714285714285" r="2.380952380952381" fill="#2D2E43" />
<circle cx="103.57142857142857" cy="39.285714285714285" r="2.380952380952381" fill="#2D2E43" />
<circle cx="125" cy="39.285714285714285" r="2.380952380952381" fill="#2D2E43" />
<circle cx="132.14285714285717" cy="39.285714285714285" r="2.380952380952381" fill="#2D2E43" />
<circle cx="146.42857142857144" cy="39.285714285714285" r="2.380952380952381" fill="#2D2E43" />
<circle cx="160.71428571428572" cy="39.285714285714285" r="2.380952380952381" fill="#2D2E43" />
<circle cx="167.85714285714286" cy="39.285714285714285" r="2.380952380952381" fill="#2D2E43" />







<circle cx="67.85714285714286" cy="46.42857142857143" r="2.380952380952381" fill="#2D2E43" />
<circle cx="96.42857142857143" cy="46.42857142857143" r="2.380952380952381" fill="#2D2E43" />
<circle cx="103.57142857142857" cy="46.42857142857143" r="2.380952380952381" fill="#2D2E43" />
<circle cx="117.85714285714286" cy="46.42857142857143" r="2.380952380952381" fill="#2D2E43" />
<circle cx="153.57142857142858" cy="46.42857142857143" r="2.380952380952381" fill="#2D2E43" />
<circle cx="167.85714285714286" cy="46.42857142857143" r="2.380952380952381" fill="#2D2E43" />
<circle cx="182.14285714285717" cy="46.42857142857143" r="2.380952380952381" fill="#2D2E43" />









<circle cx="67.85714285714286" cy="53.57142857142858" r="2.380952380952381" fill="#2D2E43" />
<circle cx="82.14285714285714" cy="53.57142857142858" r="2.380952380952381" fill="#2D2E43" />
<circle cx="96.42857142857143" cy="53.57142857142858" r="2.380952380952381" fill="#2D2E43" />
<circle cx="110.71428571428571" cy="53.57142857142858" r="2.380952380952381" fill="#2D2E43" />
<circle cx="125" cy="53.57142857142858" r="2.380952380952381" fill="#2D2E43" />
<circle cx="139.2857142857143" cy="53.57142857142858" r="2.380952380952381" fill="#2D2E43" />
<circle cx="153.57142857142858" cy="53.57142857142858" r="2.380952380952381" fill="#2D2E43" />
<circle cx="167.85714285714286" cy="53.57142857142858" r="2.380952380952381" fill="#2D2E43" />
<circle cx="182.14285714285717" cy="53.57142857142858" r="2.380952380952381" fill="#2D2E43" />







<circle cx="67.85714285714286" cy="60.714285714285715" r="2.380952380952381" fill="#2D2E43" />
<circle cx="75" cy="60.714285714285715" r="2.380952380952381" fill="#2D2E43" />
<circle cx="89.28571428571428" cy="60.714285714285715" r="2.380952380952381" fill="#2D2E43" />
<circle cx="96.42857142857143" cy="60.714285714285715" r="2.380952380952381" fill="#2D2E43" />
<circle cx="110.71428571428571" cy="60.714285714285715" r="2.380952380952381" fill="#2D2E43" />
<circle cx="132.14285714285717" cy="60.714285714285715" r="2.380952380952381" fill="#2D2E43" />
<circle cx="146.42857142857144" cy="60.714285714285715" r="2.380952380952381" fill="#2D2E43" />
<circle cx="153.57142857142858" cy="60.714285714285715" r="2.380952380952381" fill="#2D2E43" />
<circle cx="160.71428571428572" cy="60.714285714285715" r="2.380952380952381" fill="#2D2E43" />
<circle cx="167.85714285714286" cy="60.714285714285715" r="2.380952380952381" fill="#2D2E43" />
<circle cx="175.00000000000003" cy="60.714285714285715" r="2.380952380952381" fill="#2D2E43" />
<circle cx="10.714285714285715" cy="67.85714285714286" r="2.380952380952381" fill="#2D2E43" />
<circle cx="39.285714285714285" cy="67.85714285714286" r="2.380952380952381" fill="#2D2E43" />
<circle cx="53.57142857142858" cy="67.85714285714286" r="2.380952380952381" fill="#2D2E43" />
<circle cx="60.714285714285715" cy="67.85714285714286" r="2.380952380952381" fill="#2D2E43" />
<circle cx="67.85714285714286" cy="67.85714285714286" r="2.380952380952381" fill="#2D2E43" />
<circle cx="82.14285714285714" cy="67.85714285714286" r="2.380952380952381" fill="#2D2E43" />
<circle cx="89.28571428571428" cy="67.85714285714286" r="2.380952380952381" fill="#2D2E43" />
<circle cx="96.42857142857143" cy="67.85714285714286" r="2.380952380952381" fill="#2D2E43" />
<circle cx="117.85714285714286" cy="67.85714285714286" r="2.380952380952381" fill="#2D2E43" />
<circle cx="125" cy="67.85714285714286" r="2.380952380952381" fill="#2D2E43" />
<circle cx="132.14285714285717" cy="67.85714285714286" r="2.380952380952381" fill="#2D2E43" />
<circle cx="153.57142857142858" cy="67.85714285714286" r="2.380952380952381" fill="#2D2E43" />
<circle cx="160.71428571428572" cy="67.85714285714286" r="2.380952380952381" fill="#2D2E43" />
<circle cx="167.85714285714286" cy="67.85714285714286" r="2.380952380952381" fill="#2D2E43" />
<circle cx="175.00000000000003" cy="67.85714285714286" r="2.380952380952381" fill="#2D2E43" />
<circle cx="182.14285714285717" cy="67.85714285714286" r="2.380952380952381" fill="#2D2E43" />
<circle cx="189.2857142857143" cy="67.85714285714286" r="2.380952380952381" fill="#2D2E43" />
<circle cx="196.42857142857144" cy="67.85714285714286" r="2.380952380952381" fill="#2D2E43" />
<circle cx="203.57142857142858" cy="67.85714285714286" r="2.380952380952381" fill="#2D2E43" />
<circle cx="210.71428571428572" cy="67.85714285714286" r="2.380952380952381" fill="#2D2E43" />
<circle cx="217.8571428571429" cy="67.85714285714286" r="2.380952380952381" fill="#2D2E43" />
<circle cx="239.2857142857143" cy="67.85714285714286" r="2.380952380952381" fill="#2D2E43" />
<circle cx="17.857142857142858" cy="75" r="2.380952380952381" fill="#2D2E43" />
<circle cx="46.42857142857143" cy="75" r="2.380952380952381" fill="#2D2E43" />
<circle cx="67.85714285714286" cy="75" r="2.380952380952381" fill="#2D2E43" />
<circle cx="75" cy="75" r="2.380952380952381" fill="#2D2E43" />
<circle cx="82.14285714285714" cy="75" r="2.380952380952381" fill="#2D2E43" />
<circle cx="89.28571428571428" cy="75" r="2.380952380952381" fill="#2D2E43" />
<circle cx="96.42857142857143" cy="75" r="2.380952380952381" fill="#2D2E43" />
<circle cx="110.71428571428571" cy="75" r="2.380952380952381" fill="#2D2E43" />
<circle cx="117.85714285714286" cy="75" r="2.380952380952381" fill="#2D2E43" />
<circle cx="125" cy="75" r="2.380952380952381" fill="#2D2E43" />
<circle cx="132.14285714285717" cy="75" r="2.380952380952381" fill="#2D2E43" />
<circle cx="139.2857142857143" cy="75" r="2.380952380952381" fill="#2D2E43" />
<circle cx="175.00000000000003" cy="75" r="2.380952380952381" fill="#2D2E43" />
<circle cx="189.2857142857143" cy="75" r="2.380952380952381" fill="#2D2E43" />
<circle cx="217.8571428571429" cy="75" r="2.380952380952381" fill="#2D2E43" />
<circle cx="225.00000000000003" cy="75" r="2.380952380952381" fill="#2D2E43" />
<circle cx="232.14285714285717" cy="75" r="2.380952380952381" fill="#2D2E43" />
<circle cx="17.857142857142858" cy="82.14285714285714" r="2.380952380952381" fill="#2D2E43" />
<circle cx="25.000000000000004" cy="82.14285714285714" r="2.380952380952381" fill="#2D2E43" />
<circle cx="39.285714285714285" cy="82.14285714285714" r="2.380952380952381" fill="#2D2E43" />
<circle cx="46.42857142857143" cy="82.14285714285714" r="2.380952380952381" fill="#2D2E43" />
<circle cx="53.57142857142858" cy="82.14285714285714" r="2.380952380952381" fill="#2D2E43" />
<circle cx="67.85714285714286" cy="82.14285714285714" r="2.380952380952381" fill="#2D2E43" />
<circle cx="82.14285714285714" cy="82.14285714285714" r="2.380952380952381" fill="#2D2E43" />
<circle cx="89.28571428571428" cy="82.14285714285714" r="2.380952380952381" fill="#2D2E43" />
<circle cx="103.57142857142857" cy="82.14285714285714" r="2.380952380952381" fill="#2D2E43" />
<circle cx="110.71428571428571" cy="82.14285714285714" r="2.380952380952381" fill="#2D2E43" />
<circle cx="117.85714285714286" cy="82.14285714285714" r="2.380952380952381" fill="#2D2E43" />
<circle cx="139.2857142857143" cy="82.14285714285714" r="2.380952380952381" fill="#2D2E43" />
<circle cx="153.57142857142858" cy="82.14285714285714" r="2.380952380952381" fill="#2D2E43" />
<circle cx="160.71428571428572" cy="82.14285714285714" r="2.380952380952381" fill="#2D2E43" />
<circle cx="167.85714285714286" cy="82.14285714285714" r="2.380952380952381" fill="#2D2E43" />
<circle cx="175.00000000000003" cy="82.14285714285714" r="2.380952380952381" fill="#2D2E43" />
<circle cx="182.14285714285717" cy="82.14285714285714" r="2.380952380952381" fill="#2D2E43" />
<circle cx="189.2857142857143" cy="82.14285714285714" r="2.380952380952381" fill="#2D2E43" />
<circle cx="217.8571428571429" cy="82.14285714285714" r="2.380952380952381" fill="#2D2E43" />
<circle cx="232.14285714285717" cy="82.14285714285714" r="2.380952380952381" fill="#2D2E43" />
<circle cx="25.000000000000004" cy="89.28571428571428" r="2.380952380952381" fill="#2D2E43" />
<circle cx="32.142857142857146" cy="89.28571428571428" r="2.380952380952381" fill="#2D2E43" />
<circle cx="39.285714285714285" cy="89.28571428571428" r="2.380952380952381" fill="#2D2E43" />
<circle cx="60.714285714285715" cy="89.28571428571428" r="2.380952380952381" fill="#2D2E43" />
<circle cx="75" cy="89.28571428571428" r="2.380952380952381" fill="#2D2E43" />
<circle cx="82.14285714285714" cy="89.28571428571428" r="2.380952380952381" fill="#2D2E43" />
<circle cx="96.42857142857143" cy="89.28571428571428" r="2.380952380952381" fill="#2D2E43" />
<circle cx="103.57142857142857" cy="89.28571428571428" r="2.380952380952381" fill="#2D2E43" />
<circle cx="146.42857142857144" cy="89.28571428571428" r="2.380952380952381" fill="#2D2E43" />
<circle cx="153.57142857142858" cy="89.28571428571428" r="2.380952380952381" fill="#2D2E43" />
<circle cx="160.71428571428572" cy="89.28571428571428" r="2.380952380952381" fill="#2D2E43" />
<circle cx="167.85714285714286" cy="89.28571428571428" r="2.380952380952381" fill="#2D2E43" />
<circle cx="189.2857142857143" cy="89.28571428571428" r="2.380952380952381" fill="#2D2E43" />
<circle cx="232.14285714285717" cy="89.28571428571428" r="2.380952380952381" fill="#2D2E43" />
<circle cx="10.714285714285715" cy="96.42857142857143" r="2.380952380952381" fill="#2D2E43" />
<circle cx="32.142857142857146" cy="96.42857142857143" r="2.380952380952381" fill="#2D2E43" />
<circle cx="46.42857142857143" cy="96.42857142857143" r="2.380952380952381" fill="#2D2E43" />
<circle cx="53.57142857142858" cy="96.42857142857143" r="2.380952380952381" fill="#2D2E43" />
<circle cx="82.14285714285714" cy="96.42857142857143" r="2.380952380952381" fill="#2D2E43" />
<circle cx="103.57142857142857" cy="96.42857142857143" r="2.380952380952381" fill="#2D2E43" />
<circle cx="117.85714285714286" cy="96.42857142857143" r="2.380952380952381" fill="#2D2E43" />
<circle cx="125" cy="96.42857142857143" r="2.380952380952381" fill="#2D2E43" />
<circle cx="146.42857142857144" cy="96.42857142857143" r="2.380952380952381" fill="#2D2E43" />
<circle cx="167.85714285714286" cy="96.42857142857143" r="2.380952380952381" fill="#2D2E43" />
<circle cx="196.42857142857144" cy="96.42857142857143" r="2.380952380952381" fill="#2D2E43" />
<circle cx="210.71428571428572" cy="96.42857142857143" r="2.380952380952381" fill="#2D2E43" />
<circle cx="217.8571428571429" cy="96.42857142857143" r="2.380952380952381" fill="#2D2E43" />
<circle cx="232.14285714285717" cy="96.42857142857143" r="2.380952380952381" fill="#2D2E43" />
<circle cx="32.142857142857146" cy="103.57142857142857" r="2.380952380952381" fill="#2D2E43" />
<circle cx="60.714285714285715" cy="103.57142857142857" r="2.380952380952381" fill="#2D2E43" />
<circle cx="75" cy="103.57142857142857" r="2.380952380952381" fill="#2D2E43" />
<circle cx="89.28571428571428" cy="103.57142857142857" r="2.380952380952381" fill="#2D2E43" />
<circle cx="96.42857142857143" cy="103.57142857142857" r="2.380952380952381" fill="#2D2E43" />
<circle cx="103.57142857142857" cy="103.57142857142857" r="2.380952380952381" fill="#2D2E43" />
<circle cx="110.71428571428571" cy="103.57142857142857" r="2.380952380952381" fill="#2D2E43" />
<circle cx="132.14285714285717" cy="103.57142857142857" r="2.380952380952381" fill="#2D2E43" />
<circle cx="139.2857142857143" cy="103.57142857142857" r="2.380952380952381" fill="#2D2E43" />
<circle cx="146.42857142857144" cy="103.57142857142857" r="2.380952380952381" fill="#2D2E43" />
<circle cx="153.57142857142858" cy="103.57142857142857" r="2.380952380952381" fill="#2D2E43" />
<circle cx="189.2857142857143" cy="103.57142857142857" r="2.380952380952381" fill="#2D2E43" />
<circle cx="203.57142857142858" cy="103.57142857142857" r="2.380952380952381" fill="#2D2E43" />
<circle cx="225.00000000000003" cy="103.57142857142857" r="2.380952380952381" fill="#2D2E43" />
<circle cx="10.714285714285715" cy="110.71428571428571" r="2.380952380952381" fill="#2D2E43" />
<circle cx="17.857142857142858" cy="110.71428571428571" r="2.380952380952381" fill="#2D2E43" />
<circle cx="39.285714285714285" cy="110.71428571428571" r="2.380952380952381" fill="#2D2E43" />
<circle cx="53.57142857142858" cy="110.71428571428571" r="2.380952380952381" fill="#2D2E43" />
<circle cx="67.85714285714286" cy="110.71428571428571" r="2.380952380952381" fill="#2D2E43" />
<circle cx="96.42857142857143" cy="110.71428571428571" r="2.380952380952381" fill="#2D2E43" />
<circle cx="117.85714285714286" cy="110.71428571428571" r="2.380952380952381" fill="#2D2E43" />
<circle cx="132.14285714285717" cy="110.71428571428571" r="2.380952380952381" fill="#2D2E43" />
<circle cx="139.2857142857143" cy="110.71428571428571" r="2.380952380952381" fill="#2D2E43" />
<circle cx="153.57142857142858" cy="110.71428571428571" r="2.380952380952381" fill="#2D2E43" />
<circle cx="160.71428571428572" cy="110.71428571428571" r="2.380952380952381" fill="#2D2E43" />
<circle cx="175.00000000000003" cy="110.71428571428571" r="2.380952380952381" fill="#2D2E43" />
<circle cx="182.14285714285717" cy="110.71428571428571" r="2.380952380952381" fill="#2D2E43" />
<circle cx="189.2857142857143" cy="110.71428571428571" r="2.380952380952381" fill="#2D2E43" />
<circle cx="196.42857142857144" cy="110.71428571428571" r="2.380952380952381" fill="#2D2E43" />
<circle cx="225.00000000000003" cy="110.71428571428571" r="2.380952380952381" fill="#2D2E43" />
<circle cx="232.14285714285717" cy="110.71428571428571" r="2.380952380952381" fill="#2D2E43" />
<circle cx="10.714285714285715" cy="117.85714285714286" r="2.380952380952381" fill="#2D2E43" />
<circle cx="17.857142857142858" cy="117.85714285714286" r="2.380952380952381" fill="#2D2E43" />
<circle cx="25.000000000000004" cy="117.85714285714286" r="2.380952380952381" fill="#2D2E43" />
<circle cx="32.142857142857146" cy="117.85714285714286" r="2.380952380952381" fill="#2D2E43" />
<circle cx="60.714285714285715" cy="117.85714285714286" r="2.380952380952381" fill="#2D2E43" />
<circle cx="67.85714285714286" cy="117.85714285714286" r="2.380952380952381" fill="#2D2E43" />
<circle cx="82.14285714285714" cy="117.85714285714286" r="2.380952380952381" fill="#2D2E43" />
<circle cx="96.42857142857143" cy="117.85714285714286" r="2.380952380952381" fill="#2D2E43" />
<circle cx="117.85714285714286" cy="117.85714285714286" r="2.380952380952381" fill="#2D2E43" />
<circle cx="125" cy="117.85714285714286" r="2.380952380952381" fill="#2D2E43" />
<circle cx="132.14285714285717" cy="117.85714285714286" r="2.380952380952381" fill="#2D2E43" />
<circle cx="160.71428571428572" cy="117.85714285714286" r="2.380952380952381" fill="#2D2E43" />
<circle cx="182.14285714285717" cy="117.85714285714286" r="2.380952380952381" fill="#2D2E43" />
<circle cx="189.2857142857143" cy="117.85714285714286" r="2.380952380952381" fill="#2D2E43" />
<circle cx="196.42857142857144" cy="117.85714285714286" r="2.380952380952381" fill="#2D2E43" />
<circle cx="203.57142857142858" cy="117.85714285714286" r="2.380952380952381" fill="#2D2E43" />
<circle cx="217.8571428571429" cy="117.85714285714286" r="2.380952380952381" fill="#2D2E43" />
<circle cx="10.714285714285715" cy="125" r="2.380952380952381" fill="#2D2E43" />
<circle cx="25.000000000000004" cy="125" r="2.380952380952381" fill="#2D2E43" />
<circle cx="46.42857142857143" cy="125" r="2.380952380952381" fill="#2D2E43" />
<circle cx="53.57142857142858" cy="125" r="2.380952380952381" fill="#2D2E43" />
<circle cx="67.85714285714286" cy="125" r="2.380952380952381" fill="#2D2E43" />
<circle cx="89.28571428571428" cy="125" r="2.380952380952381" fill="#2D2E43" />
<circle cx="132.14285714285717" cy="125" r="2.380952380952381" fill="#2D2E43" />
<circle cx="139.2857142857143" cy="125" r="2.380952380952381" fill="#2D2E43" />
<circle cx="146.42857142857144" cy="125" r="2.380952380952381" fill="#2D2E43" />
<circle cx="160.71428571428572" cy="125" r="2.380952380952381" fill="#2D2E43" />
<circle cx="175.00000000000003" cy="125" r="2.380952380952381" fill="#2D2E43" />
<circle cx="196.42857142857144" cy="125" r="2.380952380952381" fill="#2D2E43" />
<circle cx="210.71428571428572" cy="125" r="2.380952380952381" fill="#2D2E43" />
<circle cx="232.14285714285717" cy="125" r="2.380952380952381" fill="#2D2E43" />
<circle cx="10.714285714285715" cy="132.14285714285717" r="2.380952380952381" fill="#2D2E43" />
<circle cx="39.285714285714285" cy="132.14285714285717" r="2.380952380952381" fill="#2D2E43" />
<circle cx="46.42857142857143" cy="132.14285714285717" r="2.380952380952381" fill="#2D2E43" />
<circle cx="60.714285714285715" cy="132.14285714285717" r="2.380952380952381" fill="#2D2E43" />
<circle cx="96.42857142857143" cy="132.14285714285717" r="2.380952380952381" fill="#2D2E43" />
<circle cx="110.71428571428571" cy="132.14285714285717" r="2.380952380952381" fill="#2D2E43" />
<circle cx="117.85714285714286" cy="132.14285714285717" r="2.380952380952381" fill="#2D2E43" />
<circle cx="139.2857142857143" cy="132.14285714285717" r="2.380952380952381" fill="#2D2E43" />
<circle cx="175.00000000000003" cy="132.14285714285717" r="2.380952380952381" fill="#2D2E43" />
<circle cx="189.2857142857143" cy="132.14285714285717" r="2.380952380952381" fill="#2D2E43" />
<circle cx="217.8571428571429" cy="132.14285714285717" r="2.380952380952381" fill="#2D2E43" />
<circle cx="225.00000000000003" cy="132.14285714285717" r="2.380952380952381" fill="#2D2E43" />
<circle cx="232.14285714285717" cy="132.14285714285717" r="2.380952380952381" fill="#2D2E43" />
<circle cx="17.857142857142858" cy="139.2857142857143" r="2.380952380952381" fill="#2D2E43" />
<circle cx="25.000000000000004" cy="139.2857142857143" r="2.380952380952381" fill="#2D2E43" />
<circle cx="53.57142857142858" cy="139.2857142857143" r="2.380952380952381" fill="#2D2E43" />
<circle cx="82.14285714285714" cy="139.2857142857143" r="2.380952380952381" fill="#2D2E43" />
<circle cx="96.42857142857143" cy="139.2857142857143" r="2.380952380952381" fill="#2D2E43" />
<circle cx="103.57142857142857" cy="139.2857142857143" r="2.380952380952381" fill="#2D2E43" />
<circle cx="110.71428571428571" cy="139.2857142857143" r="2.380952380952381" fill="#2D2E43" />
<circle cx="117.85714285714286" cy="139.2857142857143" r="2.380952380952381" fill="#2D2E43" />
<circle cx="132.14285714285717" cy="139.2857142857143" r="2.380952380952381" fill="#2D2E43" />
<circle cx="175.00000000000003" cy="139.2857142857143" r="2.380952380952381" fill="#2D2E43" />
<circle cx="189.2857142857143" cy="139.2857142857143" r="2.380952380952381" fill="#2D2E43" />
<circle cx="196.42857142857144" cy="139.2857142857143" r="2.380952380952381" fill="#2D2E43" />
<circle cx="203.57142857142858" cy="139.2857142857143" r="2.380952380952381" fill="#2D2E43" />
<circle cx="217.8571428571429" cy="139.2857142857143" r="2.380952380952381" fill="#2D2E43" />
<circle cx="232.14285714285717" cy="139.2857142857143" r="2.380952380952381" fill="#2D2E43" />
<circle cx="60.714285714285715" cy="146.42857142857144" r="2.380952380952381" fill="#2D2E43" />
<circle cx="67.85714285714286" cy="146.42857142857144" r="2.380952380952381" fill="#2D2E43" />
<circle cx="82.14285714285714" cy="146.42857142857144" r="2.380952380952381" fill="#2D2E43" />
<circle cx="96.42857142857143" cy="146.42857142857144" r="2.380952380952381" fill="#2D2E43" />
<circle cx="110.71428571428571" cy="146.42857142857144" r="2.380952380952381" fill="#2D2E43" />
<circle cx="117.85714285714286" cy="146.42857142857144" r="2.380952380952381" fill="#2D2E43" />
<circle cx="132.14285714285717" cy="146.42857142857144" r="2.380952380952381" fill="#2D2E43" />
<circle cx="139.2857142857143" cy="146.42857142857144" r="2.380952380952381" fill="#2D2E43" />
<circle cx="160.71428571428572" cy="146.42857142857144" r="2.380952380952381" fill="#2D2E43" />
<circle cx="167.85714285714286" cy="146.42857142857144" r="2.380952380952381" fill="#2D2E43" />
<circle cx="182.14285714285717" cy="146.42857142857144" r="2.380952380952381" fill="#2D2E43" />
<circle cx="196.42857142857144" cy="146.42857142857144" r="2.380952380952381" fill="#2D2E43" />
<circle cx="203.57142857142858" cy="146.42857142857144" r="2.380952380952381" fill="#2D2E43" />
<circle cx="25.000000000000004" cy="153.57142857142858" r="2.380952380952381" fill="#2D2E43" />
<circle cx="39.285714285714285" cy="153.57142857142858" r="2.380952380952381" fill="#2D2E43" />
<circle cx="46.42857142857143" cy="153.57142857142858" r="2.380952380952381" fill="#2D2E43" />
<circle cx="53.57142857142858" cy="153.57142857142858" r="2.380952380952381" fill="#2D2E43" />
<circle cx="60.714285714285715" cy="153.57142857142858" r="2.380952380952381" fill="#2D2E43" />
<circle cx="75" cy="153.57142857142858" r="2.380952380952381" fill="#2D2E43" />
<circle cx="110.71428571428571" cy="153.57142857142858" r="2.380952380952381" fill="#2D2E43" />
<circle cx="117.85714285714286" cy="153.57142857142858" r="2.380952380952381" fill="#2D2E43" />
<circle cx="139.2857142857143" cy="153.57142857142858" r="2.380952380952381" fill="#2D2E43" />
<circle cx="153.57142857142858" cy="153.57142857142858" r="2.380952380952381" fill="#2D2E43" />
<circle cx="175.00000000000003" cy="153.57142857142858" r="2.380952380952381" fill="#2D2E43" />
<circle cx="182.14285714285717" cy="153.57142857142858" r="2.380952380952381" fill="#2D2E43" />
<circle cx="189.2857142857143" cy="153.57142857142858" r="2.380952380952381" fill="#2D2E43" />
<circle cx="196.42857142857144" cy="153.57142857142858" r="2.380952380952381" fill="#2D2E43" />
<circle cx="210.71428571428572" cy="153.57142857142858" r="2.380952380952381" fill="#2D2E43" />
<circle cx="217.8571428571429" cy="153.57142857142858" r="2.380952380952381" fill="#2D2E43" />
<circle cx="10.714285714285715" cy="160.71428571428572" r="2.380952380952381" fill="#2D2E43" />
<circle cx="17.857142857142858" cy="160.71428571428572" r="2.380952380952381" fill="#2D2E43" />
<circle cx="25.000000000000004" cy="160.71428571428572" r="2.380952380952381" fill="#2D2E43" />
<circle cx="32.142857142857146" cy="160.71428571428572" r="2.380952380952381" fill="#2D2E43" />
<circle cx="39.285714285714285" cy="160.71428571428572" r="2.380952380952381" fill="#2D2E43" />
<circle cx="46.42857142857143" cy="160.71428571428572" r="2.380952380952381" fill="#2D2E43" />
<circle cx="60.714285714285715" cy="160.71428571428572" r="2.380952380952381" fill="#2D2E43" />
<circle cx="89.28571428571428" cy="160.71428571428572" r="2.380952380952381" fill="#2D2E43" />
<circle cx="96.42857142857143" cy="160.71428571428572" r="2.380952380952381" fill="#2D2E43" />
<circle cx="110.71428571428571" cy="160.71428571428572" r="2.380952380952381" fill="#2D2E43" />
<circle cx="125" cy="160.71428571428572" r="2.380952380952381" fill="#2D2E43" />
<circle cx="132.14285714285717" cy="160.71428571428572" r="2.380952380952381" fill="#2D2E43" />
<circle cx="146.42857142857144" cy="160.71428571428572" r="2.380952380952381" fill="#2D2E43" />
<circle cx="160.71428571428572" cy="160.71428571428572" r="2.380952380952381" fill="#2D2E43" />
<circle cx="189.2857142857143" cy="160.71428571428572" r="2.380952380952381" fill="#2D2E43" />
<circle cx="203.57142857142858" cy="160.71428571428572" r="2.380952380952381" fill="#2D2E43" />
<circle cx="217.8571428571429" cy="160.71428571428572" r="2.380952380952381" fill="#2D2E43" />
<circle cx="232.14285714285717" cy="160.71428571428572" r="2.380952380952381" fill="#2D2E43" />
<circle cx="25.000000000000004" cy="167.85714285714286" r="2.380952380952381" fill="#2D2E43" />
<circle cx="32.142857142857146" cy="167.85714285714286" r="2.380952380952381" fill="#2D2E43" />
<circle cx="39.285714285714285" cy="167.85714285714286" r="2.380952380952381" fill="#2D2E43" />
<circle cx="53.57142857142858" cy="167.85714285714286" r="2.380952380952381" fill="#2D2E43" />
<circle cx="60.714285714285715" cy="167.85714285714286" r="2.380952380952381" fill="#2D2E43" />
<circle cx="67.85714285714286" cy="167.85714285714286" r="2.380952380952381" fill="#2D2E43" />
<circle cx="75" cy="167.85714285714286" r="2.380952380952381" fill="#2D2E43" />
<circle cx="96.42857142857143" cy="167.85714285714286" r="2.380952380952381" fill="#2D2E43" />
<circle cx="103.57142857142857" cy="167.85714285714286" r="2.380952380952381" fill="#2D2E43" />
<circle cx="110.71428571428571" cy="167.85714285714286" r="2.380952380952381" fill="#2D2E43" />
<circle cx="125" cy="167.85714285714286" r="2.380952380952381" fill="#2D2E43" />
<circle cx="139.2857142857143" cy="167.85714285714286" r="2.380952380952381" fill="#2D2E43" />
<circle cx="146.42857142857144" cy="167.85714285714286" r="2.380952380952381" fill="#2D2E43" />
<circle cx="175.00000000000003" cy="167.85714285714286" r="2.380952380952381" fill="#2D2E43" />
<circle cx="225.00000000000003" cy="167.85714285714286" r="2.380952380952381" fill="#2D2E43" />
<circle cx="232.14285714285717" cy="167.85714285714286" r="2.380952380952381" fill="#2D2E43" />
<circle cx="25.000000000000004" cy="175.00000000000003" r="2.380952380952381" fill="#2D2E43" />
<circle cx="46.42857142857143" cy="175.00000000000003" r="2.380952380952381" fill="#2D2E43" />
<circle cx="60.714285714285715" cy="175.00000000000003" r="2.380952380952381" fill="#2D2E43" />
<circle cx="89.28571428571428" cy="175.00000000000003" r="2.380952380952381" fill="#2D2E43" />
<circle cx="96.42857142857143" cy="175.00000000000003" r="2.380952380952381" fill="#2D2E43" />
<circle cx="103.57142857142857" cy="175.00000000000003" r="2.380952380952381" fill="#2D2E43" />
<circle cx="132.14285714285717" cy="175.00000000000003" r="2.380952380952381" fill="#2D2E43" />
<circle cx="146.42857142857144" cy="175.00000000000003" r="2.380952380952381" fill="#2D2E43" />
<circle cx="153.57142857142858" cy="175.00000000000003" r="2.380952380952381" fill="#2D2E43" />
<circle cx="160.71428571428572" cy="175.00000000000003" r="2.380952380952381" fill="#2D2E43" />
<circle cx="167.85714285714286" cy="175.00000000000003" r="2.380952380952381" fill="#2D2E43" />
<circle cx="189.2857142857143" cy="175.00000000000003" r="2.380952380952381" fill="#2D2E43" />
<circle cx="196.42857142857144" cy="175.00000000000003" r="2.380952380952381" fill="#2D2E43" />
<circle cx="232.14285714285717" cy="175.00000000000003" r="2.380952380952381" fill="#2D2E43" />
<circle cx="239.2857142857143" cy="175.00000000000003" r="2.380952380952381" fill="#2D2E43" />
<circle cx="10.714285714285715" cy="182.14285714285717" r="2.380952380952381" fill="#2D2E43" />
<circle cx="17.857142857142858" cy="182.14285714285717" r="2.380952380952381" fill="#2D2E43" />
<circle cx="25.000000000000004" cy="182.14285714285717" r="2.380952380952381" fill="#2D2E43" />
<circle cx="32.142857142857146" cy="182.14285714285717" r="2.380952380952381" fill="#2D2E43" />
<circle cx="53.57142857142858" cy="182.14285714285717" r="2.380952380952381" fill="#2D2E43" />
<circle cx="60.714285714285715" cy="182.14285714285717" r="2.380952380952381" fill="#2D2E43" />
<circle cx="75" cy="182.14285714285717" r="2.380952380952381" fill="#2D2E43" />
<circle cx="82.14285714285714" cy="182.14285714285717" r="2.380952380952381" fill="#2D2E43" />
<circle cx="96.42857142857143" cy="182.14285714285717" r="2.380952380952381" fill="#2D2E43" />
<circle cx="117.85714285714286" cy="182.14285714285717" r="2.380952380952381" fill="#2D2E43" />
<circle cx="132.14285714285717" cy="182.14285714285717" r="2.380952380952381" fill="#2D2E43" />
<circle cx="153.57142857142858" cy="182.14285714285717" r="2.380952380952381" fill="#2D2E43" />
<circle cx="160.71428571428572" cy="182.14285714285717" r="2.380952380952381" fill="#2D2E43" />
<circle cx="182.14285714285717" cy="182.14285714285717" r="2.380952380952381" fill="#2D2E43" />
<circle cx="189.2857142857143" cy="182.14285714285717" r="2.380952380952381" fill="#2D2E43" />
<circle cx="196.42857142857144" cy="182.14285714285717" r="2.380952380952381" fill="#2D2E43" />
<circle cx="203.57142857142858" cy="182.14285714285717" r="2.380952380952381" fill="#2D2E43" />
<circle cx="210.71428571428572" cy="182.14285714285717" r="2.380952380952381" fill="#2D2E43" />
<circle cx="217.8571428571429" cy="182.14285714285717" r="2.380952380952381" fill="#2D2E43" />
<circle cx="67.85714285714286" cy="189.2857142857143" r="2.380952380952381" fill="#2D2E43" />
<circle cx="82.14285714285714" cy="189.2857142857143" r="2.380952380952381" fill="#2D2E43" />
<circle cx="96.42857142857143" cy="189.2857142857143" r="2.380952380952381" fill="#2D2E43" />
<circle cx="103.57142857142857" cy="189.2857142857143" r="2.380952380952381" fill="#2D2E43" />
<circle cx="110.71428571428571" cy="189.2857142857143" r="2.380952380952381" fill="#2D2E43" />
<circle cx="117.85714285714286" cy="189.2857142857143" r="2.380952380952381" fill="#2D2E43" />
<circle cx="125" cy="189.2857142857143" r="2.380952380952381" fill="#2D2E43" />
<circle cx="132.14285714285717" cy="189.2857142857143" r="2.380952380952381" fill="#2D2E43" />
<circle cx="139.2857142857143" cy="189.2857142857143" r="2.380952380952381" fill="#2D2E43" />
<circle cx="160.71428571428572" cy="189.2857142857143" r="2.380952380952381" fill="#2D2E43" />
<circle cx="167.85714285714286" cy="189.2857142857143" r="2.380952380952381" fill="#2D2E43" />
<circle cx="182.14285714285717" cy="189.2857142857143" r="2.380952380952381" fill="#2D2E43" />
<circle cx="210.71428571428572" cy="189.2857142857143" r="2.380952380952381" fill="#2D2E43" />
<circle cx="225.00000000000003" cy="189.2857142857143" r="2.380952380952381" fill="#2D2E43" />
<circle cx="232.14285714285717" cy="189.2857142857143" r="2.380952380952381" fill="#2D2E43" />







<circle cx="67.85714285714286" cy="196.42857142857144" r="2.380952380952381" fill="#2D2E43" />
<circle cx="75" cy="196.42857142857144" r="2.380952380952381" fill="#2D2E43" />
<circle cx="82.14285714285714" cy="196.42857142857144" r="2.380952380952381" fill="#2D2E43" />
<circle cx="89.28571428571428" cy="196.42857142857144" r="2.380952380952381" fill="#2D2E43" />
<circle cx="96.42857142857143" cy="196.42857142857144" r="2.380952380952381" fill="#2D2E43" />
<circle cx="103.57142857142857" cy="196.42857142857144" r="2.380952380952381" fill="#2D2E43" />
<circle cx="117.85714285714286" cy="196.42857142857144" r="2.380952380952381" fill="#2D2E43" />
<circle cx="139.2857142857143" cy="196.42857142857144" r="2.380952380952381" fill="#2D2E43" />
<circle cx="182.14285714285717" cy="196.42857142857144" r="2.380952380952381" fill="#2D2E43" />
<circle cx="196.42857142857144" cy="196.42857142857144" r="2.380952380952381" fill="#2D2E43" />
<circle cx="210.71428571428572" cy="196.42857142857144" r="2.380952380952381" fill="#2D2E43" />
<circle cx="217.8571428571429" cy="196.42857142857144" r="2.380952380952381" fill="#2D2E43" />
<circle cx="232.14285714285717" cy="196.42857142857144" r="2.380952380952381" fill="#2D2E43" />


<circle cx="75" cy="203.57142857142858" r="2.380952380952381" fill="#2D2E43" />
<circle cx="89.28571428571428" cy="203.57142857142858" r="2.380952380952381" fill="#2D2E43" />
<circle cx="96.42857142857143" cy="203.57142857142858" r="2.380952380952381" fill="#2D2E43" />
<circle cx="110.71428571428571" cy="203.57142857142858" r="2.380952380952381" fill="#2D2E43" />
<circle cx="153.57142857142858" cy="203.57142857142858" r="2.380952380952381" fill="#2D2E43" />
<circle cx="167.85714285714286" cy="203.57142857142858" r="2.380952380952381" fill="#2D2E43" />
<circle cx="182.14285714285717" cy="203.57142857142858" r="2.380952380952381" fill="#2D2E43" />
<circle cx="210.71428571428572" cy="203.57142857142858" r="2.380952380952381" fill="#2D2E43" />
<circle cx="239.2857142857143" cy="203.57142857142858" r="2.380952380952381" fill="#2D2E43" />





<circle cx="67.85714285714286" cy="210.71428571428572" r="2.380952380952381" fill="#2D2E43" />
<circle cx="96.42857142857143" cy="210.71428571428572" r="2.380952380952381" fill="#2D2E43" />
<circle cx="110.71428571428571" cy="210.71428571428572" r="2.380952380952381" fill="#2D2E43" />
<circle cx="117.85714285714286" cy="210.71428571428572" r="2.380952380952381" fill="#2D2E43" />
<circle cx="125" cy="210.71428571428572" r="2.380952380952381" fill="#2D2E43" />
<circle cx="146.42857142857144" cy="210.71428571428572" r="2.380952380952381" fill="#2D2E43" />
<circle cx="167.85714285714286" cy="210.71428571428572" r="2.380952380952381" fill="#2D2E43" />
<circle cx="182.14285714285717" cy="210.71428571428572" r="2.380952380952381" fill="#2D2E43" />
<circle cx="189.2857142857143" cy="210.71428571428572" r="2.380952380952381" fill="#2D2E43" />
<circle cx="196.42857142857144" cy="210.71428571428572" r="2.380952380952381" fill="#2D2E43" />
<circle cx="203.57142857142858" cy="210.71428571428572" r="2.380952380952381" fill="#2D2E43" />
<circle cx="210.71428571428572" cy="210.71428571428572" r="2.380952380952381" fill="#2D2E43" />
<circle cx="217.8571428571429" cy="210.71428571428572" r="2.380952380952381" fill="#2D2E43" />
<circle cx="232.14285714285717" cy="210.71428571428572" r="2.380952380952381" fill="#2D2E43" />
<circle cx="239.2857142857143" cy="210.71428571428572" r="2.380952380952381" fill="#2D2E43" />





<circle cx="75" cy="217.8571428571429" r="2.380952380952381" fill="#2D2E43" />
<circle cx="82.14285714285714" cy="217.8571428571429" r="2.380952380952381" fill="#2D2E43" />
<circle cx="96.42857142857143" cy="217.8571428571429" r="2.380952380952381" fill="#2D2E43" />
<circle cx="139.2857142857143" cy="217.8571428571429" r="2.380952380952381" fill="#2D2E43" />
<circle cx="146.42857142857144" cy="217.8571428571429" r="2.380952380952381" fill="#2D2E43" />
<circle cx="153.57142857142858" cy="217.8571428571429" r="2.380952380952381" fill="#2D2E43" />
<circle cx="160.71428571428572" cy="217.8571428571429" r="2.380952380952381" fill="#2D2E43" />
<circle cx="175.00000000000003" cy="217.8571428571429" r="2.380952380952381" fill="#2D2E43" />
<circle cx="196.42857142857144" cy="217.8571428571429" r="2.380952380952381" fill="#2D2E43" />
<circle cx="203.57142857142858" cy="217.8571428571429" r="2.380952380952381" fill="#2D2E43" />
<circle cx="210.71428571428572" cy="217.8571428571429" r="2.380952380952381" fill="#2D2E43" />
<circle cx="217.8571428571429" cy="217.8571428571429" r="2.380952380952381" fill="#2D2E43" />
<circle cx="225.00000000000003" cy="217.8571428571429" r="2.380952380952381" fill="#2D2E43" />
<circle cx="232.14285714285717" cy="217.8571428571429" r="2.380952380952381" fill="#2D2E43" />





<circle cx="82.14285714285714" cy="225.00000000000003" r="2.380952380952381" fill="#2D2E43" />
<circle cx="89.28571428571428" cy="225.00000000000003" r="2.380952380952381" fill="#2D2E43" />
<circle cx="96.42857142857143" cy="225.00000000000003" r="2.380952380952381" fill="#2D2E43" />
<circle cx="103.57142857142857" cy="225.00000000000003" r="2.380952380952381" fill="#2D2E43" />
<circle cx="110.71428571428571" cy="225.00000000000003" r="2.380952380952381" fill="#2D2E43" />
<circle cx="117.85714285714286" cy="225.00000000000003" r="2.380952380952381" fill="#2D2E43" />
<circle cx="153.57142857142858" cy="225.00000000000003" r="2.380952380952381" fill="#2D2E43" />
<circle cx="160.71428571428572" cy="225.00000000000003" r="2.380952380952381" fill="#2D2E43" />
<circle cx="167.85714285714286" cy="225.00000000000003" r="2.380952380952381" fill="#2D2E43" />
<circle cx="182.14285714285717" cy="225.00000000000003" r="2.380952380952381" fill="#2D2E43" />
<circle cx="196.42857142857144" cy="225.00000000000003" r="2.380952380952381" fill="#2D2E43" />
<circle cx="203.57142857142858" cy="225.00000000000003" r="2.380952380952381" fill="#2D2E43" />
<circle cx="210.71428571428572" cy="225.00000000000003" r="2.380952380952381" fill="#2D2E43" />
<circle cx="217.8571428571429" cy="225.00000000000003" r="2.380952380952381" fill="#2D2E43" />


<circle cx="117.85714285714286" cy="232.14285714285717" r="2.380952380952381" fill="#2D2E43" />
<circle cx="125" cy="232.14285714285717" r="2.380952380952381" fill="#2D2E43" />
<circle cx="132.14285714285717" cy="232.14285714285717" r="2.380952380952381" fill="#2D2E43" />
<circle cx="139.2857142857143" cy="232.14285714285717" r="2.380952380952381" fill="#2D2E43" />
<circle cx="160.71428571428572" cy="232.14285714285717" r="2.380952380952381" fill="#2D2E43" />
<circle cx="167.85714285714286" cy="232.14285714285717" r="2.380952380952381" fill="#2D2E43" />
<circle cx="182.14285714285717" cy="232.14285714285717" r="2.380952380952381" fill="#2D2E43" />
<circle cx="189.2857142857143" cy="232.14285714285717" r="2.380952380952381" fill="#2D2E43" />
<circle cx="196.42857142857144" cy="232.14285714285717" r="2.380952380952381" fill="#2D2E43" />







<circle cx="67.85714285714286" cy="239.2857142857143" r="2.380952380952381" fill="#2D2E43" />
<circle cx="75" cy="239.2857142857143" r="2.380952380952381" fill="#2D2E43" />
<circle cx="82.14285714285714" cy="239.2857142857143" r="2.380952380952381" fill="#2D2E43" />
<circle cx="89.28571428571428" cy="239.2857142857143" r="2.380952380952381" fill="#2D2E43" />
<circle cx="96.42857142857143" cy="239.2857142857143" r="2.380952380952381" fill="#2D2E43" />
<circle cx="132.14285714285717" cy="239.2857142857143" r="2.380952380952381" fill="#2D2E43" />
<circle cx="146.42857142857144" cy="239.2857142857143" r="2.380952380952381" fill="#2D2E43" />
<circle cx="160.71428571428572" cy="239.2857142857143" r="2.380952380952381" fill="#2D2E43" />
<circle cx="167.85714285714286" cy="239.2857142857143" r="2.380952380952381" fill="#2D2E43" />
<circle cx="175.00000000000003" cy="239.2857142857143" r="2.380952380952381" fill="#2D2E43" />
<circle cx="182.14285714285717" cy="239.2857142857143" r="2.380952380952381" fill="#2D2E43" />
<circle cx="239.2857142857143" cy="239.2857142857143" r="2.380952380952381" fill="#2D2E43" />
<path fill="#2D2E43" d="M 216.89414923610803        20.870857539857184           q 0.962993621034822  -0.4696833715597259   1.925987242069644  0 L 227.60843495039376   25.157197102800534      q 0.962993621034822  0.4696833715597259    0.962993621034822      1.5411119429882976 L 228.57142857142858              37.58740523992546 q 0               1.0714285714285716  -0.962993621034822     1.5411119429882976 L 218.8201364781777     43.41485674585711        q -0.962993621034822 0.4696833715597259    -1.925987242069644 0 L 208.10585076389197 39.128517182913754    q -0.962993621034822 -0.4696833715597259   -0.962993621034822     -1.5411119429882976 L 207.14285714285714                  26.698309045788832     q 0               -1.0714285714285716 0.962993621034822      -1.5411119429882976 Z" />
<path fill="#2D2E43" d="M 31.179863521822323        20.870857539857184           q 0.962993621034822  -0.4696833715597259   1.925987242069644  0 L 41.89414923610804   25.157197102800534      q 0.962993621034822  0.4696833715597259    0.962993621034822      1.5411119429882976 L 42.85714285714286              37.58740523992546 q 0               1.0714285714285716  -0.962993621034822     1.5411119429882976 L 33.105850763891965     43.41485674585711        q -0.962993621034822 0.4696833715597259    -1.925987242069644 0 L 22.391565049606253 39.128517182913754    q -0.962993621034822 -0.4696833715597259   -0.962993621034822     -1.5411119429882976 L 21.42857142857143                  26.698309045788832     q 0               -1.0714285714285716 0.962993621034822      -1.5411119429882976 Z" />
<path fill="#2D2E43" d="M 31.179863521822323        206.5851432541429           q 0.962993621034822  -0.4696833715597259   1.925987242069644  0 L 41.89414923610804   210.87148281708625      q 0.962993621034822  0.4696833715597259    0.962993621034822      1.5411119429882976 L 42.85714285714286              223.30169095421115 q 0               1.0714285714285716  -0.962993621034822     1.5411119429882976 L 33.105850763891965     229.12914246014282        q -0.962993621034822 0.4696833715597259    -1.925987242069644 0 L 22.391565049606253 224.84280289719948    q -0.962993621034822 -0.4696833715597259   -0.962993621034822     -1.5411119429882976 L 21.42857142857143                  212.41259476007457     q 0               -1.0714285714285716 0.962993621034822      -1.5411119429882976 Z" />
<path fill="#2D2E43" d="M 217.05464817294717        12.964788328224108           q 0.8024946841956849  -0.39140280963310486   1.6049893683913699  0 L 234.91179103009003   20.891493219062564      q 0.8024946841956849  0.39140280963310486    0.8024946841956849      1.2842599524902478 L 235.71428571428572              42.10996111416147 q 0               0.8928571428571429  -0.8024946841956849     1.2842599524902478 L 218.65963754133855     51.32092595749018        q -0.8024946841956849 0.39140280963310486    -1.6049893683913699 0 L 200.8024946841957 43.394221066651724    q -0.8024946841956849 -0.39140280963310486   -0.8024946841956849     -1.2842599524902478 L 200                  22.175753171552813     q 0               -0.8928571428571429 0.8024946841956849      -1.2842599524902478 L 217.05464817294717         12.964788328224108 L 213.36317262564702         6.93745260282993   197.3511130886387     14.747055849085692      q -4.493970231495835 2.191855733945387    -4.493970231495835     7.191855733945387 L 192.85714285714286                 42.34680270268321 q 0                5  4.493970231495835      7.191855733945387 L 213.36317262564702      57.348261682884356       q 4.493970231495835  2.191855733945387    8.98794046299167  0 L 238.36317262564702 49.5386584366286  q 4.493970231495835  -2.191855733945387   4.493970231495835      -7.191855733945387 L 242.85714285714286                   21.93891158303108   q 0                -5 -4.493970231495835     -7.191855733945387 L 222.3511130886387         6.93745260282993          q -4.493970231495835 -2.191855733945387   -8.98794046299167 0 Z" />
<path fill="#2D2E43" d="M 31.34036245866146        12.964788328224108           q 0.8024946841956849  -0.39140280963310486   1.6049893683913699  0 L 49.197505315804314   20.891493219062564      q 0.8024946841956849  0.39140280963310486    0.8024946841956849      1.2842599524902478 L 50              42.10996111416147 q 0               0.8928571428571429  -0.8024946841956849     1.2842599524902478 L 32.94535182705283     51.32092595749018        q -0.8024946841956849 0.39140280963310486    -1.6049893683913699 0 L 15.088208969909973 43.394221066651724    q -0.8024946841956849 -0.39140280963310486   -0.8024946841956849     -1.2842599524902478 L 14.285714285714288                  22.175753171552813     q 0               -0.8928571428571429 0.8024946841956849      -1.2842599524902478 L 31.34036245866146         12.964788328224108 L 27.64888691136131         6.93745260282993   11.63682737435298     14.747055849085692      q -4.493970231495835 2.191855733945387    -4.493970231495835     7.191855733945387 L 7.142857142857146                 42.34680270268321 q 0                5  4.493970231495835      7.191855733945387 L 27.64888691136131      57.348261682884356       q 4.493970231495835  2.191855733945387    8.98794046299167  0 L 52.64888691136131 49.5386584366286  q 4.493970231495835  -2.191855733945387   4.493970231495835      -7.191855733945387 L 57.142857142857146                   21.93891158303108   q 0                -5 -4.493970231495835     -7.191855733945387 L 36.63682737435298         6.93745260282993          q -4.493970231495835 -2.191855733945387   -8.98794046299167 0 Z" />
<path fill="#2D2E43" d="M 31.34036245866146        198.67907404250982           q 0.8024946841956849  -0.39140280963310486   1.6049893683913699  0 L 49.197505315804314   206.6057789333483      q 0.8024946841956849  0.39140280963310486    0.8024946841956849      1.2842599524902478 L 50              227.8242468284472 q 0               0.8928571428571429  -0.8024946841956849     1.2842599524902478 L 32.94535182705283     237.0352116717759        q -0.8024946841956849 0.39140280963310486    -1.6049893683913699 0 L 15.088208969909973 229.10850678093743    q -0.8024946841956849 -0.39140280963310486   -0.8024946841956849     -1.2842599524902478 L 14.285714285714288                  207.89003888583852     q 0               -0.8928571428571429 0.8024946841956849      -1.2842599524902478 L 31.34036245866146         198.67907404250982 L 27.64888691136131         192.65173831711564   11.63682737435298     200.46134156337143      q -4.493970231495835 2.191855733945387    -4.493970231495835     7.191855733945387 L 7.142857142857146                 228.06108841696891 q 0                5  4.493970231495835      7.191855733945387 L 27.64888691136131      243.06254739717008       q 4.493970231495835  2.191855733945387    8.98794046299167  0 L 52.64888691136131 235.2529441509143  q 4.493970231495835  -2.191855733945387   4.493970231495835      -7.191855733945387 L 57.142857142857146                   207.6531972973168   q 0                -5 -4.493970231495835     -7.191855733945387 L 36.63682737435298         192.65173831711564          q -4.493970231495835 -2.191855733945387   -8.98794046299167 0 Z" />
      </clipPath>
      
      <rect fill="#2D2E43" clip-path="url(#clipz47z279)" x="0" y="0" height="250" width="250" />
    </svg>
    